<?xml version="1.0" encoding="utf-8"?>
<!-- Generator: Adobe Illustrator 23.0.0, SVG Export Plug-In . SVG Version: 6.00 Build 0)  -->
<svg version="1.1" id="Layer_1" xmlns="http://www.w3.org/2000/svg" xmlns:xlink="http://www.w3.org/1999/xlink" x="0px" y="0px"
	 viewBox="0 0 170.08 170.08" style="enable-background:new 0 0 170.08 170.08;" xml:space="preserve">
<style type="text/css">
	.st0{opacity:0.4;fill:none;}
	.st1{fill:#F5F5F4;}
</style>
<g>
	<rect class="st0" width="170.08" height="170.08"/>
	<path class="st1" d="M116.17,86.25c-3.78-9.67-7.68-19.68-13.39-25.55l-0.86-0.89l1.2,0.27c8.68,1.98,13.83,15.03,18.81,27.65
		c3.98,10.07,8.83,22.01,15.06,27.74l0.89,0.82l-1.2-0.19C127.4,114.63,121.33,99.46,116.17,86.25 M127.91,116.14
		c-9.73-1.21-15.6-16.13-20.86-29.76c-3.47-9-7.07-18.3-12.03-24.3l-0.27-0.32l0.36-0.22c0.5-0.31,1.01-0.58,1.51-0.8l0.17-0.08
		l0.16,0.1c6.94,4.13,11.46,15.69,15.82,26.87c4.13,10.57,8.82,22.32,15.42,27.88l0.94,0.79L127.91,116.14z M119.8,116.2
		c-10.3-0.76-15.74-15.48-21.14-29.66c-2.62-6.89-5.34-14.01-8.66-19.66l-0.12-0.21l0.14-0.19c0.7-0.94,1.42-1.79,2.14-2.53
		l0.28-0.29l0.26,0.31c4.7,5.58,8.22,14.7,11.62,23.53c4.31,11.18,8.62,22.79,15.72,28.05l1.01,0.75L119.8,116.2z M112.46,116.26
		c-10.83-0.36-15.92-14.9-21.45-29.59c-1.63-4.34-3.32-8.83-5.15-12.93l-0.07-0.16l0.08-0.16c0.77-1.53,1.55-2.94,2.31-4.19
		l0.33-0.54l0.31,0.55c2.92,5.27,5.41,11.81,7.82,18.14c4.48,11.77,8.49,23.29,16.05,28.19l1.1,0.72L112.46,116.26z M83.72,68.11
		l-0.33,0.57l-0.31-0.57c-0.6-1.1-1.2-2.13-1.79-3.04l-0.15-0.23l0.17-0.21c0.71-0.85,1.44-1.6,2.17-2.25l0.27-0.23L84,62.4
		c0.58,0.62,1.16,1.31,1.72,2.06l0.16,0.21l-0.15,0.22C85.06,65.87,84.41,66.92,83.72,68.11 M82.46,70.43
		c-2.51,4.82-4.69,10.35-6.8,15.69c-4.98,12.61-11.3,27.49-19.96,29.49l-1.21,0.28l0.86-0.89c5.69-5.88,10.76-17.71,14.53-27.37
		c2.99-7.66,6.08-15.58,9.97-21.08l0.32-0.45l0.29,0.47c0.67,1.08,1.34,2.27,2,3.53l0.09,0.17L82.46,70.43z M46.3,115.64l-1.23,0.24
		l0.91-0.87c6.02-5.78,10.88-17.39,14.79-27.52c4.14-10.73,8.42-21.82,14.82-26.59l0.25-0.18l0.22,0.21
		c0.58,0.55,1.14,1.16,1.67,1.79l0.19,0.23l-0.18,0.23c-4.58,5.97-7.97,14.67-11.25,23.07C61.4,99.26,55.34,113.84,46.3,115.64
		 M37.78,115.67l-1.26,0.22l0.96-0.85c6.34-5.63,10.85-17.02,14.9-27.64c5.06-13.29,10.3-27.03,19.44-29.31l0.13-0.03l0.12,0.05
		c0.29,0.13,0.57,0.28,0.84,0.44l0.46,0.26l-0.4,0.34c-6.54,5.56-10.8,16.58-14.91,27.24C52.87,99.78,47.2,114.04,37.78,115.67
		 M28.35,115.9l1.03-0.81c6.8-5.35,11.11-16.6,15.33-27.82c5.53-14.68,11.25-29.87,22.08-30.23l1.31-0.04l-1.1,0.72
		c-7.55,4.9-12.19,17.07-16.67,28.83c-5.3,13.93-10.73,27.97-20.68,29.2L28.35,115.9z M77.62,59.64c0.54-0.27,1.11-0.5,1.69-0.68
		l0.14-0.04l0.13,0.07c0.3,0.15,0.59,0.31,0.88,0.49l0.41,0.25l-0.35,0.33c-0.45,0.43-0.91,0.9-1.35,1.39l-0.28,0.31l-0.27-0.32
		c-0.38-0.45-0.74-0.84-1.1-1.21l-0.35-0.36L77.62,59.64z M86.01,60.57c0.53-0.29,1.06-0.54,1.58-0.73l0.16-0.06l0.15,0.08
		c0.31,0.17,0.62,0.35,0.92,0.55l0.37,0.24l-0.3,0.32c-0.43,0.44-0.85,0.93-1.31,1.48l-0.29,0.35l-0.28-0.36
		c-0.39-0.5-0.75-0.93-1.09-1.3l-0.31-0.34L86.01,60.57z M133.18,102.4c-2.62-4.81-4.9-10.58-7.15-16.28
		c-5.93-15.01-12.06-30.53-24.99-30.68H67.07l-0.25,0.02c-11.83,0.32-17.74,16.02-23.46,31.22c-5.54,14.7-11.26,29.91-22.1,30.24
		v1.51h33.6l0.21-0.02c12.71-0.41,18.79-15.79,24.66-30.67c1.55-3.91,3.14-7.95,4.85-11.66l0.35-0.75l0.32,0.76
		c1.54,3.59,2.99,7.45,4.39,11.18c5.6,14.86,11.38,30.23,22.72,31.16l34.39,0h2.06v-1.51C141.98,116.7,137.18,110.58,133.18,102.4"
		/>
	<g>
		<path class="st1" d="M21.18,134.97h9.21c2.47,0,4.42,0.71,5.66,1.92c0.9,0.93,1.39,2.07,1.39,3.46v0.06
			c0,2.81-1.73,4.26-3.43,5.01c2.56,0.77,4.63,2.26,4.63,5.22v0.06c0,3.71-3.12,5.9-7.85,5.9h-9.61V134.97z M34.96,140.68
			c0-2.13-1.7-3.52-4.79-3.52h-6.58v7.45h6.4c2.94,0,4.97-1.33,4.97-3.86V140.68z M30.42,146.77h-6.83v7.63h7.26
			c3.28,0,5.31-1.45,5.31-3.86v-0.06C36.17,148.13,34.19,146.77,30.42,146.77z"/>
		<path class="st1" d="M42.11,148.69v-0.06c0-4.51,3.52-8.34,8.34-8.34c4.79,0,8.31,3.77,8.31,8.28v0.06c0,4.51-3.55,8.34-8.37,8.34
			C45.6,156.97,42.11,153.2,42.11,148.69z M56.32,148.69v-0.06c0-3.43-2.56-6.24-5.93-6.24c-3.46,0-5.84,2.81-5.84,6.18v0.06
			c0,3.43,2.53,6.21,5.9,6.21C53.91,154.84,56.32,152.06,56.32,148.69z"/>
		<path class="st1" d="M61.73,154.56l1.21-1.7c1.73,1.3,3.65,2.04,5.53,2.04c1.92,0,3.31-0.99,3.31-2.53v-0.06
			c0-1.61-1.88-2.22-3.99-2.81c-2.5-0.71-5.28-1.58-5.28-4.51v-0.06c0-2.75,2.29-4.57,5.44-4.57c1.95,0,4.11,0.68,5.75,1.76
			l-1.08,1.79c-1.48-0.96-3.18-1.54-4.73-1.54c-1.88,0-3.09,0.99-3.09,2.32v0.06c0,1.51,1.98,2.1,4.11,2.75
			c2.47,0.74,5.13,1.7,5.13,4.57v0.06c0,3.03-2.5,4.79-5.69,4.79C66.06,156.91,63.52,156.01,61.73,154.56z"/>
		<path class="st1" d="M77.46,148.66v-0.06c0-4.6,3.24-8.31,7.66-8.31c4.73,0,7.45,3.77,7.45,8.44c0,0.31,0,0.49-0.03,0.77H79.87
			c0.34,3.46,2.78,5.41,5.62,5.41c2.19,0,3.74-0.9,5.04-2.26l1.48,1.33c-1.61,1.79-3.55,3-6.58,3
			C81.04,156.97,77.46,153.6,77.46,148.66z M90.16,147.73c-0.25-2.9-1.92-5.44-5.1-5.44c-2.78,0-4.88,2.32-5.19,5.44H90.16z"/>
		<path class="st1" d="M114.42,134.81h2.29l9.86,21.78h-2.63l-2.53-5.72h-11.77l-2.56,5.72h-2.5L114.42,134.81z M120.45,148.69
			l-4.91-11.03l-4.94,11.03H120.45z"/>
		<path class="st1" d="M130.83,134.97h9.3c2.66,0,4.79,0.8,6.15,2.16c1.05,1.05,1.67,2.57,1.67,4.26v0.06c0,3.58-2.47,5.69-5.87,6.3
			l6.64,8.84h-3l-6.27-8.4h-6.18v8.4h-2.44V134.97z M139.92,146c3.24,0,5.56-1.67,5.56-4.45v-0.06c0-2.66-2.04-4.26-5.53-4.26h-6.67
			V146H139.92z"/>
	</g>
</g>
<g>
	<path class="st1" d="M20.2,31.36h6.58v0.94h-5.55v3.11h4.97v0.94h-4.97v3.19h5.62v0.94H20.2V31.36z"/>
	<path class="st1" d="M30.08,31.36h0.96l5.73,7.29v-7.29h1v9.1h-0.82L31.08,33v7.46h-1V31.36z"/>
	<path class="st1" d="M41.52,31.36h1.03v4.04h5.25v-4.04h1.03v9.1H47.8v-4.09h-5.25v4.09h-1.03V31.36z"/>
	<path class="st1" d="M55.94,31.29h0.96l4.15,9.17h-1.11l-1.07-2.41h-4.95l-1.08,2.41h-1.05L55.94,31.29z M58.47,37.13l-2.07-4.64
		l-2.08,4.64H58.47z"/>
	<path class="st1" d="M64.01,31.36h0.96l5.73,7.29v-7.29h1v9.1h-0.82L65.01,33v7.46h-1V31.36z"/>
	<path class="st1" d="M75.05,35.93v-0.03c0-2.57,1.92-4.71,4.6-4.71c1.65,0,2.64,0.58,3.55,1.44l-0.7,0.75
		c-0.77-0.73-1.62-1.25-2.86-1.25c-2.02,0-3.52,1.64-3.52,3.73v0.03c0,2.11,1.52,3.76,3.52,3.76c1.25,0,2.07-0.48,2.94-1.31
		l0.68,0.66c-0.95,0.96-1.99,1.6-3.64,1.6C76.99,40.62,75.05,38.55,75.05,35.93z"/>
	<path class="st1" d="M86.27,31.36h6.58v0.94h-5.55v3.11h4.97v0.94h-4.97v3.19h5.62v0.94h-6.64V31.36z"/>
	<path class="st1" d="M96.15,31.36h3.16c2.86,0,4.84,1.96,4.84,4.52v0.03c0,2.56-1.98,4.55-4.84,4.55h-3.16V31.36z M97.17,32.31v7.2
		h2.13c2.3,0,3.77-1.56,3.77-3.58v-0.03c0-2.02-1.47-3.6-3.77-3.6H97.17z"/>
	<path class="st1" d="M111.85,31.36h1.12l2.6,7.58l2.5-7.6h0.85l2.5,7.6l2.6-7.58h1.08l-3.25,9.17h-0.87l-2.5-7.38l-2.51,7.38h-0.86
		L111.85,31.36z"/>
	<path class="st1" d="M128.2,31.36h1.03v9.1h-1.03V31.36z"/>
	<path class="st1" d="M135.43,32.31h-3.07v-0.95h7.16v0.95h-3.07v8.15h-1.03V32.31z"/>
	<path class="st1" d="M142.57,31.36h1.03v4.04h5.25v-4.04h1.03v9.1h-1.03v-4.09h-5.25v4.09h-1.03V31.36z"/>
</g>
</svg>
