<?xml version="1.0" encoding="utf-8"?>
<!-- Generator: Adobe Illustrator 23.0.0, SVG Export Plug-In . SVG Version: 6.00 Build 0)  -->
<svg version="1.1" id="Layer_1" xmlns="http://www.w3.org/2000/svg" xmlns:xlink="http://www.w3.org/1999/xlink" x="0px" y="0px"
	 viewBox="0 0 736.37 85.04" style="enable-background:new 0 0 736.37 85.04;" xml:space="preserve">
<style type="text/css">
	.st0{fill:#F5F5F4;}
	.st1{fill:none;}
</style>
<g>
	<path class="st0" d="M39.99,29.21h20.24v2.88H43.15v9.56h15.28v2.88H43.15v9.8h17.28v2.88H39.99V29.21z"/>
	<path class="st0" d="M70.39,29.21h2.96l17.64,22.44V29.21h3.08v28h-2.52L73.47,34.24V57.2h-3.08V29.21z"/>
	<path class="st0" d="M105.59,29.21h3.16v12.44h16.16V29.21h3.16v28h-3.16V44.6h-16.16v12.6h-3.16V29.21z"/>
	<path class="st0" d="M149.95,29h2.96l12.76,28.2h-3.4l-3.28-7.4h-15.24l-3.32,7.4h-3.24L149.95,29z M157.75,46.96l-6.36-14.28
		l-6.4,14.28H157.75z"/>
	<path class="st0" d="M174.79,29.21h2.96l17.64,22.44V29.21h3.08v28h-2.52l-18.08-22.96V57.2h-3.08V29.21z"/>
	<path class="st0" d="M208.75,43.28V43.2c0-7.92,5.92-14.48,14.16-14.48c5.08,0,8.12,1.8,10.92,4.44l-2.16,2.32
		c-2.36-2.24-5-3.84-8.8-3.84c-6.2,0-10.84,5.04-10.84,11.48v0.08c0,6.48,4.68,11.56,10.84,11.56c3.84,0,6.36-1.48,9.04-4.04
		l2.08,2.04c-2.92,2.96-6.12,4.92-11.2,4.92C214.71,57.68,208.75,51.32,208.75,43.28z"/>
	<path class="st0" d="M243.27,29.21h20.24v2.88h-17.08v9.56h15.28v2.88h-15.28v9.8h17.28v2.88h-20.44V29.21z"/>
	<path class="st0" d="M273.67,29.21h9.72c8.8,0,14.88,6.04,14.88,13.92v0.08c0,7.88-6.08,14-14.88,14h-9.72V29.21z M276.83,32.12
		v22.16h6.56c7.08,0,11.6-4.8,11.6-11V43.2c0-6.2-4.52-11.08-11.6-11.08H276.83z"/>
	<path class="st0" d="M321.99,29.21h3.44l8,23.32l7.68-23.4h2.6l7.68,23.4l8-23.32h3.32l-10,28.2h-2.68l-7.68-22.72l-7.72,22.72
		h-2.64L321.99,29.21z"/>
	<path class="st0" d="M372.31,29.21h3.16v28h-3.16V29.21z"/>
	<path class="st0" d="M394.55,32.12h-9.44v-2.92h22.04v2.92h-9.44V57.2h-3.16V32.12z"/>
	<path class="st0" d="M416.51,29.21h3.16v12.44h16.16V29.21h3.16v28h-3.16V44.6h-16.16v12.6h-3.16V29.21z"/>
</g>
<rect x="79.72" class="st1" width="656.65" height="85.04"/>
<g>
	<path class="st0" d="M508.21,42.18c-1.89-4.84-3.84-9.84-6.69-12.78l-0.43-0.44l0.6,0.14c4.34,0.99,6.91,7.51,9.41,13.82
		c1.99,5.04,4.42,11.01,7.53,13.87l0.45,0.41l-0.6-0.09C513.82,56.37,510.79,48.78,508.21,42.18 M514.08,57.13
		c-4.87-0.6-7.8-8.06-10.43-14.88c-1.74-4.5-3.53-9.15-6.02-12.15l-0.13-0.16l0.18-0.11c0.25-0.16,0.5-0.29,0.75-0.4l0.09-0.04
		l0.08,0.05c3.47,2.06,5.73,7.84,7.91,13.43c2.06,5.29,4.41,11.16,7.71,13.94l0.47,0.4L514.08,57.13z M510.02,57.16
		c-5.15-0.38-7.87-7.74-10.57-14.83c-1.31-3.44-2.67-7-4.33-9.83l-0.06-0.1l0.07-0.1c0.35-0.47,0.71-0.89,1.07-1.26l0.14-0.14
		l0.13,0.15c2.35,2.79,4.11,7.35,5.81,11.76c2.16,5.59,4.31,11.4,7.86,14.02l0.51,0.38L510.02,57.16z M506.35,57.19
		c-5.42-0.18-7.96-7.45-10.73-14.79c-0.82-2.17-1.66-4.41-2.58-6.47l-0.03-0.08l0.04-0.08c0.38-0.77,0.77-1.47,1.15-2.09l0.16-0.27
		l0.15,0.27c1.46,2.64,2.71,5.91,3.91,9.07c2.24,5.88,4.25,11.65,8.02,14.1l0.55,0.36L506.35,57.19z M491.98,33.11l-0.16,0.28
		l-0.16-0.29c-0.3-0.55-0.6-1.06-0.9-1.52l-0.07-0.11l0.09-0.1c0.36-0.42,0.72-0.8,1.09-1.12l0.13-0.12l0.12,0.13
		c0.29,0.31,0.58,0.66,0.86,1.03l0.08,0.11l-0.08,0.11C492.66,31.99,492.33,32.51,491.98,33.11 M491.35,34.27
		c-1.25,2.41-2.35,5.17-3.4,7.85c-2.49,6.3-5.65,13.74-9.98,14.74l-0.6,0.14l0.43-0.44c2.84-2.94,5.38-8.86,7.27-13.69
		c1.5-3.83,3.04-7.79,4.98-10.54l0.16-0.23l0.15,0.23c0.33,0.54,0.67,1.14,1,1.77l0.04,0.08L491.35,34.27z M473.27,56.87L472.66,57
		l0.45-0.43c3.01-2.89,5.44-8.69,7.39-13.76c2.07-5.36,4.21-10.91,7.41-13.3l0.12-0.09l0.11,0.11c0.29,0.28,0.57,0.58,0.84,0.89
		l0.09,0.11l-0.09,0.12c-2.29,2.99-3.99,7.33-5.63,11.54C480.83,48.68,477.79,55.97,473.27,56.87 M469.01,56.89L468.38,57l0.48-0.43
		c3.17-2.82,5.43-8.51,7.45-13.82c2.53-6.65,5.15-13.52,9.72-14.66l0.06-0.02l0.06,0.03c0.14,0.07,0.28,0.14,0.42,0.22l0.23,0.13
		l-0.2,0.17c-3.27,2.78-5.4,8.29-7.46,13.62C476.56,48.94,473.72,56.08,469.01,56.89 M464.3,57l0.52-0.41
		c3.4-2.67,5.55-8.3,7.67-13.91c2.76-7.34,5.62-14.94,11.04-15.12l0.66-0.02l-0.55,0.36c-3.78,2.45-6.09,8.53-8.34,14.42
		c-2.65,6.96-5.36,13.98-10.34,14.6L464.3,57z M488.94,28.87c0.27-0.14,0.56-0.25,0.84-0.34l0.07-0.02l0.07,0.03
		c0.15,0.07,0.29,0.16,0.44,0.24l0.2,0.12l-0.17,0.16c-0.23,0.22-0.45,0.45-0.67,0.7l-0.14,0.16l-0.14-0.16
		c-0.19-0.22-0.37-0.42-0.55-0.61l-0.18-0.18L488.94,28.87z M493.13,29.34c0.26-0.15,0.53-0.27,0.79-0.37l0.08-0.03l0.07,0.04
		c0.16,0.09,0.31,0.18,0.46,0.28l0.18,0.12l-0.15,0.16c-0.21,0.22-0.43,0.46-0.65,0.74l-0.14,0.17l-0.14-0.18
		c-0.2-0.25-0.37-0.46-0.54-0.65l-0.15-0.17L493.13,29.34z M516.71,50.25c-1.31-2.4-2.45-5.29-3.58-8.14
		c-2.96-7.5-6.03-15.26-12.49-15.34h-16.98l-0.13,0.01c-5.91,0.16-8.87,8.01-11.73,15.61c-2.77,7.35-5.63,14.95-11.05,15.12v0.76
		h16.8l0.11-0.01c6.36-0.21,9.39-7.9,12.33-15.33c0.77-1.96,1.57-3.98,2.42-5.83l0.17-0.37l0.16,0.38c0.77,1.8,1.49,3.72,2.2,5.59
		c2.8,7.43,5.69,15.11,11.36,15.58l17.19,0h1.03v-0.76C521.11,57.41,518.71,54.35,516.71,50.25"/>
	<g>
		<path class="st0" d="M545.79,28.93h11.64c3.12,0,5.58,0.9,7.15,2.42c1.13,1.17,1.76,2.62,1.76,4.37v0.08
			c0,3.55-2.19,5.39-4.34,6.33c3.24,0.98,5.86,2.85,5.86,6.6v0.08c0,4.69-3.95,7.46-9.92,7.46h-12.15V28.93z M563.21,36.16
			c0-2.7-2.15-4.45-6.05-4.45h-8.32v9.41h8.08c3.71,0,6.29-1.68,6.29-4.88V36.16z M557.47,43.85h-8.63v9.65h9.18
			c4.14,0,6.72-1.84,6.72-4.88v-0.08C564.74,45.57,562.24,43.85,557.47,43.85z"/>
		<path class="st0" d="M572.23,46.27v-0.08c0-5.7,4.45-10.55,10.55-10.55c6.06,0,10.51,4.77,10.51,10.47v0.08
			c0,5.7-4.49,10.55-10.58,10.55C576.65,56.74,572.23,51.98,572.23,46.27z M590.2,46.27v-0.08c0-4.34-3.24-7.89-7.5-7.89
			c-4.38,0-7.38,3.55-7.38,7.81v0.08c0,4.34,3.2,7.85,7.46,7.85C587.16,54.05,590.2,50.53,590.2,46.27z"/>
		<path class="st0" d="M597.03,53.69l1.52-2.15c2.19,1.64,4.61,2.58,6.99,2.58c2.42,0,4.18-1.25,4.18-3.2v-0.08
			c0-2.03-2.38-2.81-5.04-3.55c-3.16-0.9-6.68-1.99-6.68-5.7v-0.08c0-3.48,2.89-5.78,6.88-5.78c2.46,0,5.19,0.86,7.27,2.23
			l-1.37,2.27c-1.88-1.21-4.02-1.95-5.98-1.95c-2.38,0-3.9,1.25-3.9,2.93v0.08c0,1.92,2.5,2.66,5.19,3.48
			c3.12,0.94,6.48,2.15,6.48,5.78v0.08c0,3.83-3.16,6.05-7.19,6.05C602.5,56.66,599.3,55.53,597.03,53.69z"/>
		<path class="st0" d="M616.91,46.23v-0.08c0-5.82,4.1-10.51,9.69-10.51c5.98,0,9.41,4.77,9.41,10.66c0,0.39,0,0.62-0.04,0.98
			h-16.02c0.43,4.37,3.52,6.83,7.11,6.83c2.77,0,4.73-1.13,6.37-2.85l1.88,1.68c-2.03,2.27-4.49,3.79-8.32,3.79
			C621.44,56.74,616.91,52.48,616.91,46.23z M632.97,45.06c-0.31-3.67-2.42-6.87-6.45-6.87c-3.51,0-6.17,2.93-6.56,6.87H632.97z"/>
		<path class="st0" d="M662.84,28.73h2.89l12.46,27.54h-3.32l-3.2-7.23h-14.88l-3.24,7.23h-3.16L662.84,28.73z M670.46,46.27
			l-6.21-13.95L658,46.27H670.46z"/>
		<path class="st0" d="M684.36,28.93h11.76c3.36,0,6.06,1.02,7.77,2.73c1.33,1.33,2.11,3.24,2.11,5.39v0.08
			c0,4.53-3.12,7.19-7.42,7.97l8.4,11.17h-3.79l-7.93-10.62h-7.81v10.62h-3.08V28.93z M695.85,42.87c4.1,0,7.03-2.11,7.03-5.62
			v-0.08c0-3.36-2.58-5.39-6.99-5.39h-8.44v11.09H695.85z"/>
	</g>
</g>
</svg>
