<?xml version="1.0" encoding="utf-8"?>
<!-- Generator: Adobe Illustrator 23.0.2, SVG Export Plug-In . SVG Version: 6.00 Build 0)  -->
<svg version="1.1" xmlns="http://www.w3.org/2000/svg" xmlns:xlink="http://www.w3.org/1999/xlink" x="0px" y="0px"
	 viewBox="0 0 1000 1000" style="enable-background:new 0 0 1000 1000;" xml:space="preserve">
<style type="text/css">
	.st0{fill-rule:evenodd;clip-rule:evenodd;fill:#F8F8F8;}
	.st1{fill:#F8F8F8;}
</style>
<g id="Layer_1">
	<g id="Bose_AR_Horizontal_1_">
		<path id="Audio_Ribbon_6_" class="st0" d="M410.1,542.9c-7.3-13.3-13.6-29.3-19.8-45.1c-16.4-41.6-33.4-84.6-69.2-85h-94.1
			l-0.7,0.1c-32.8,0.9-49.2,44.4-65,86.5C145.9,540,130,582.2,100,583.1v4.2h93.1l0.6,0c35.2-1.1,52.1-43.8,68.3-85
			c4.3-10.8,8.7-22,13.4-32.3l1-2.1l0.9,2.1c4.3,10,8.3,20.6,12.2,31c15.5,41.2,31.5,83.8,63,86.3l95.3,0h5.7v-4.2
			C434.5,582.5,421.2,565.5,410.1,542.9z M279.4,427c1.5-0.8,2.9-1.5,4.4-2l0.4-0.2l0.4,0.2c0.9,0.5,1.7,1,2.6,1.5l1,0.7l-0.8,0.9
			c-1.2,1.2-2.4,2.6-3.6,4.1l-0.8,1l-0.8-1c-1.1-1.4-2.1-2.6-3-3.6l-0.8-0.9L279.4,427z M256.2,424.4c1.5-0.8,3.1-1.4,4.7-1.9
			l0.4-0.1l0.4,0.2c0.8,0.4,1.6,0.9,2.4,1.3l1.1,0.7l-1,0.9c-1.3,1.2-2.5,2.5-3.7,3.9l-0.8,0.9l-0.8-0.9c-1-1.2-2-2.3-3-3.4l-1-1
			L256.2,424.4z M119.6,580.3l2.9-2.2c18.8-14.8,30.8-46,42.5-77.1c15.3-40.7,31.2-82.8,61.2-83.8l3.6-0.1l-3.1,2
			c-20.9,13.6-33.8,47.3-46.2,79.9c-14.7,38.6-29.7,77.5-57.3,80.9L119.6,580.3z M145.8,579.6l-3.5,0.6l2.7-2.4
			c17.6-15.6,30.1-47.2,41.3-76.6c14-36.8,28.5-74.9,53.9-81.2l0.3-0.1l0.3,0.2c0.8,0.4,1.6,0.8,2.3,1.2l1.3,0.7l-1.1,0.9
			c-18.1,15.4-29.9,45.9-41.3,75.5C187.6,535.6,171.9,575.1,145.8,579.6z M169.4,579.5l-3.4,0.7l2.5-2.4c16.7-16,30.1-48.2,41-76.3
			c11.5-29.7,23.3-60.5,41.1-73.7l0.7-0.5l0.6,0.6c1.6,1.5,3.2,3.2,4.6,5l0.5,0.6l-0.5,0.6c-12.7,16.6-22.1,40.6-31.2,63.9
			C211.2,534.2,194.4,574.6,169.4,579.5z M269.6,454.3c-7,13.4-13,28.7-18.9,43.5c-13.8,34.9-31.3,76.2-55.3,81.7l-3.3,0.8l2.4-2.5
			c15.8-16.3,29.8-49.1,40.3-75.8c8.3-21.2,16.9-43.2,27.6-58.4l0.9-1.3l0.8,1.3c1.9,3,3.7,6.3,5.5,9.8l0.2,0.5L269.6,454.3z
			 M273.1,447.8l-0.9,1.6l-0.9-1.6c-1.7-3-3.3-5.9-5-8.4l-0.4-0.6l0.5-0.6c2-2.3,4-4.4,6-6.2l0.7-0.6l0.7,0.7
			c1.6,1.7,3.2,3.6,4.8,5.7l0.4,0.6l-0.4,0.6C276.8,441.6,275,444.6,273.1,447.8z M352.7,581.3c-30-1-44.1-41.3-59.4-82
			c-4.5-12-9.2-24.5-14.3-35.8l-0.2-0.4l0.2-0.4c2.1-4.2,4.3-8.1,6.4-11.6l0.9-1.5l0.8,1.5c8.1,14.6,15,32.7,21.7,50.3
			c12.4,32.6,23.5,64.5,44.5,78.1l3.1,2L352.7,581.3z M373,581.1c-28.5-2.1-43.6-42.9-58.6-82.2c-7.3-19.1-14.8-38.8-24-54.5
			l-0.3-0.6l0.4-0.5c1.9-2.6,3.9-5,5.9-7l0.8-0.8l0.7,0.9c13,15.5,22.8,40.7,32.2,65.2c12,31,23.9,63.1,43.5,77.7l2.8,2.1L373,581.1
			z M395.5,580.9c-27-3.3-43.2-44.7-57.8-82.5c-9.6-24.9-19.6-50.7-33.3-67.3l-0.7-0.9l1-0.6c1.4-0.9,2.8-1.6,4.2-2.2l0.5-0.2
			l0.4,0.3c19.2,11.4,31.7,43.5,43.8,74.5c11.4,29.3,24.4,61.9,42.7,77.2l2.6,2.2L395.5,580.9z M363,498.1
			c-10.5-26.8-21.3-54.5-37.1-70.8l-2.4-2.5l3.3,0.8c24,5.5,38.3,41.6,52.1,76.6c11,27.9,24.5,61,41.7,76.9l2.5,2.3l-3.3-0.5
			C394.1,576.8,377.3,534.7,363,498.1z"/>
	</g>
</g>
<g id="Layer_3">
	<g>
		<path class="st1" d="M484.4,454.3h29.8c8,0,14.3,2.3,18.3,6.2c2.9,3,4.5,6.7,4.5,11.2v0.2c0,9.1-5.6,13.8-11.1,16.2
			c8.3,2.5,15,7.3,15,16.9v0.2c0,12-10.1,19.1-25.4,19.1h-31.1V454.3z M529,472.8c0-6.9-5.5-11.4-15.5-11.4h-21.3v24.1h20.7
			c9.5,0,16.1-4.3,16.1-12.5V472.8z M514.3,492.4h-22.1v24.7h23.5c10.6,0,17.2-4.7,17.2-12.5v-0.2
			C532.9,496.8,526.5,492.4,514.3,492.4z"/>
		<path class="st1" d="M552.1,498.6v-0.2c0-14.6,11.4-27,27-27c15.5,0,26.9,12.2,26.9,26.8v0.2c0,14.6-11.5,27-27.1,27
			C563.4,525.4,552.1,513.2,552.1,498.6z M598,498.6v-0.2c0-11.1-8.3-20.2-19.2-20.2c-11.2,0-18.9,9.1-18.9,20v0.2
			c0,11.1,8.2,20.1,19.1,20.1C590.2,518.5,598,509.5,598,498.6z"/>
		<path class="st1" d="M615.5,517.6l3.9-5.5c5.6,4.2,11.8,6.6,17.9,6.6c6.2,0,10.7-3.2,10.7-8.2v-0.2c0-5.2-6.1-7.2-12.9-9.1
			c-8.1-2.3-17.1-5.1-17.1-14.6v-0.2c0-8.9,7.4-14.8,17.6-14.8c6.3,0,13.3,2.2,18.6,5.7l-3.5,5.8c-4.8-3.1-10.3-5-15.3-5
			c-6.1,0-10,3.2-10,7.5v0.2c0,4.9,6.4,6.8,13.3,8.9c8,2.4,16.6,5.5,16.6,14.8v0.2c0,9.8-8.1,15.5-18.4,15.5
			C629.5,525.2,621.3,522.3,615.5,517.6z"/>
		<path class="st1" d="M666.4,498.5v-0.2c0-14.9,10.5-26.9,24.8-26.9c15.3,0,24.1,12.2,24.1,27.3c0,1,0,1.6-0.1,2.5h-41
			c1.1,11.2,9,17.5,18.2,17.5c7.1,0,12.1-2.9,16.3-7.3l4.8,4.3c-5.2,5.8-11.5,9.7-21.3,9.7C678,525.4,666.4,514.5,666.4,498.5z
			 M707.5,495.5c-0.8-9.4-6.2-17.6-16.5-17.6c-9,0-15.8,7.5-16.8,17.6H707.5z"/>
		<path class="st1" d="M783.9,453.8h7.4l31.9,70.4h-8.5l-8.2-18.5h-38.1l-8.3,18.5H752L783.9,453.8z M803.4,498.6L787.5,463
			l-16,35.7H803.4z"/>
		<path class="st1" d="M839,454.3H869c8.6,0,15.5,2.6,19.9,7c3.4,3.4,5.4,8.3,5.4,13.8v0.2c0,11.6-8,18.4-19,20.4l21.5,28.6h-9.7
			L866.8,497h-20v27.2H839V454.3z M868.3,489.9c10.5,0,18-5.4,18-14.4v-0.2c0-8.6-6.6-13.8-17.9-13.8h-21.6v28.4H868.3z"/>
	</g>
</g>
</svg>
