<svg xmlns="http://www.w3.org/2000/svg" xmlns:xlink="http://www.w3.org/1999/xlink" viewBox="0 0 84.89 84.89"><defs><style>.cls-1{fill:#f8f8f8;}.cls-2{fill:none;}.cls-3{clip-path:url(#clip-path);}</style><clipPath id="clip-path"><path class="cls-1" d="M74.28,54.82c-3.74,0-7-1.91-10.74-11.26-3.45-8.62-7.37-17-14-17H35.37c-6.65,0-10.57,8.41-14,17-3.74,9.35-7,11.26-10.74,11.26v3.54H24.76c6.13,0,10.19-3.91,14-13.49a85.85,85.85,0,0,1,3.66-8.13,83.25,83.25,0,0,1,3.67,8.13c3.83,9.58,7.89,13.49,14,13.49H74.28Zm-14-10c1.78,4.47,3.62,7.69,5.7,9.87-3.23-.45-6.17-2.89-9.49-11.18-2.07-5.16-4.3-10.22-7.18-13.47l.23,0C53.52,30.07,56.7,36,60.26,44.87Zm-35.63,0c3.56-8.89,6.75-14.8,10.74-14.8l.23,0c-2.88,3.25-5.11,8.31-7.18,13.47-3.32,8.29-6.26,10.73-9.49,11.18C21,52.56,22.85,49.34,24.63,44.87ZM35.5,43.56C32.18,51.85,29.24,54.29,26,54.74c2.07-2.18,3.91-5.4,5.7-9.87,2.45-6.12,4.72-10.83,7.2-13.17a12.14,12.14,0,0,1,1.41,1.62A69,69,0,0,0,35.5,43.56Zm13.89,0a69,69,0,0,0-4.82-10.24A12.14,12.14,0,0,1,46,31.7c2.48,2.34,4.76,7.05,7.2,13.17,1.79,4.47,3.63,7.69,5.7,9.87C55.65,54.29,52.71,51.85,49.39,43.56Z"/></clipPath></defs><title>Bose_AR_RGB_Symbol_SmallSize_White_</title><g id="Layer_2" data-name="Layer 2"><g id="Layer_1-2" data-name="Layer 1"><rect class="cls-2" width="84.89" height="84.89"/><path class="cls-1" d="M74.28,54.82c-3.74,0-7-1.91-10.74-11.26-3.45-8.62-7.37-17-14-17H35.37c-6.65,0-10.57,8.41-14,17-3.74,9.35-7,11.26-10.74,11.26v3.54H24.76c6.13,0,10.19-3.91,14-13.49a85.85,85.85,0,0,1,3.66-8.13,83.25,83.25,0,0,1,3.67,8.13c3.83,9.58,7.89,13.49,14,13.49H74.28Zm-14-10c1.78,4.47,3.62,7.69,5.7,9.87-3.23-.45-6.17-2.89-9.49-11.18-2.07-5.16-4.3-10.22-7.18-13.47l.23,0C53.52,30.07,56.7,36,60.26,44.87Zm-35.63,0c3.56-8.89,6.75-14.8,10.74-14.8l.23,0c-2.88,3.25-5.11,8.31-7.18,13.47-3.32,8.29-6.26,10.73-9.49,11.18C21,52.56,22.85,49.34,24.63,44.87ZM35.5,43.56C32.18,51.85,29.24,54.29,26,54.74c2.07-2.18,3.91-5.4,5.7-9.87,2.45-6.12,4.72-10.83,7.2-13.17a12.14,12.14,0,0,1,1.41,1.62A69,69,0,0,0,35.5,43.56Zm13.89,0a69,69,0,0,0-4.82-10.24A12.14,12.14,0,0,1,46,31.7c2.48,2.34,4.76,7.05,7.2,13.17,1.79,4.47,3.63,7.69,5.7,9.87C55.65,54.29,52.71,51.85,49.39,43.56Z"/><g class="cls-3"><rect class="cls-1" x="0.01" y="17.69" width="84.88" height="49.52"/></g></g></g></svg>