<?xml version="1.0" encoding="utf-8"?>
<!-- Generator: Adobe Illustrator 23.0.0, SVG Export Plug-In . SVG Version: 6.00 Build 0)  -->
<svg version="1.1" id="Layer_1" xmlns="http://www.w3.org/2000/svg" xmlns:xlink="http://www.w3.org/1999/xlink" x="0px" y="0px"
	 viewBox="0 0 352.04 42.52" style="enable-background:new 0 0 352.04 42.52;" xml:space="preserve">
<style type="text/css">
	.st0{fill:none;}
	.st1{fill:#F7F7F6;}
</style>
<rect x="16.02" class="st0" width="336.02" height="42.52"/>
<g>
	<g>
		<path class="st1" d="M256.57,14.44h5.82c1.56,0,2.79,0.45,3.57,1.21c0.57,0.59,0.88,1.31,0.88,2.19v0.04
			c0,1.78-1.09,2.69-2.17,3.16c1.62,0.49,2.93,1.43,2.93,3.3v0.04c0,2.34-1.97,3.73-4.96,3.73h-6.07V14.44z M265.28,18.05
			c0-1.35-1.07-2.23-3.03-2.23h-4.16v4.71h4.04c1.86,0,3.14-0.84,3.14-2.44V18.05z M262.41,21.9h-4.32v4.82h4.59
			c2.07,0,3.36-0.92,3.36-2.44v-0.04C266.04,22.76,264.79,21.9,262.41,21.9z"/>
		<path class="st1" d="M269.79,23.11v-0.04c0-2.85,2.23-5.27,5.27-5.27c3.03,0,5.25,2.38,5.25,5.23v0.04c0,2.85-2.25,5.27-5.29,5.27
			C271.99,28.35,269.79,25.96,269.79,23.11z M278.77,23.11v-0.04c0-2.17-1.62-3.94-3.75-3.94c-2.19,0-3.69,1.78-3.69,3.91v0.04
			c0,2.17,1.6,3.93,3.73,3.93C277.25,27,278.77,25.24,278.77,23.11z"/>
		<path class="st1" d="M282.19,26.82l0.76-1.07c1.09,0.82,2.3,1.29,3.5,1.29c1.21,0,2.09-0.62,2.09-1.6V25.4
			c0-1.02-1.19-1.41-2.52-1.78c-1.58-0.45-3.34-1-3.34-2.85v-0.04c0-1.74,1.45-2.89,3.44-2.89c1.23,0,2.6,0.43,3.63,1.11l-0.68,1.13
			c-0.94-0.61-2.01-0.98-2.99-0.98c-1.19,0-1.95,0.63-1.95,1.46v0.04c0,0.96,1.25,1.33,2.6,1.74c1.56,0.47,3.24,1.07,3.24,2.89v0.04
			c0,1.91-1.58,3.03-3.59,3.03C284.92,28.31,283.32,27.74,282.19,26.82z"/>
		<path class="st1" d="M292.13,23.09v-0.04c0-2.91,2.05-5.25,4.84-5.25c2.99,0,4.71,2.38,4.71,5.33c0,0.19,0,0.31-0.02,0.49h-8.01
			c0.21,2.19,1.76,3.42,3.55,3.42c1.39,0,2.36-0.57,3.18-1.43l0.94,0.84c-1.02,1.13-2.25,1.89-4.16,1.89
			C294.39,28.35,292.13,26.22,292.13,23.09z M300.15,22.51c-0.16-1.84-1.21-3.44-3.22-3.44c-1.76,0-3.08,1.46-3.28,3.44H300.15z"/>
		<path class="st1" d="M315.09,14.34h1.45l6.23,13.77h-1.66l-1.6-3.61h-7.44l-1.62,3.61h-1.58L315.09,14.34z M318.9,23.11
			l-3.11-6.97l-3.12,6.97H318.9z"/>
		<path class="st1" d="M325.85,14.44h5.88c1.68,0,3.03,0.51,3.89,1.37c0.66,0.66,1.05,1.62,1.05,2.7v0.04
			c0,2.27-1.56,3.59-3.71,3.98l4.2,5.59h-1.89l-3.96-5.31h-3.91v5.31h-1.54V14.44z M331.59,21.41c2.05,0,3.52-1.06,3.52-2.81v-0.04
			c0-1.68-1.29-2.69-3.5-2.69h-4.22v5.55H331.59z"/>
	</g>
	<path class="st1" d="M245.8,27.41c-1.87,0-3.5-0.96-5.37-5.63c-1.72-4.31-3.68-8.51-7.01-8.51h-7.07c-3.33,0-5.29,4.21-7.01,8.51
		c-1.87,4.68-3.5,5.63-5.37,5.63v1.77h0.88h2.65h3.54c3.06,0,5.09-1.95,7.01-6.75c0.62-1.56,1.23-2.93,1.83-4.07
		c0.6,1.13,1.21,2.5,1.83,4.07c1.92,4.79,3.95,6.75,7.01,6.75h3.54h2.65h0.88V27.41z M238.79,22.43c0.89,2.23,1.81,3.84,2.85,4.93
		c-1.62-0.22-3.09-1.44-4.74-5.59c-1.03-2.58-2.15-5.11-3.59-6.73c0.04,0,0.08-0.01,0.12-0.01
		C235.41,15.03,237.01,17.99,238.79,22.43z M220.97,22.43c1.78-4.44,3.37-7.4,5.37-7.4c0.04,0,0.08,0.01,0.12,0.01
		c-1.44,1.63-2.56,4.16-3.59,6.73c-1.66,4.15-3.13,5.37-4.75,5.59C219.16,26.28,220.08,24.67,220.97,22.43z M226.41,21.78
		c-1.66,4.15-3.13,5.37-4.75,5.59c1.04-1.09,1.96-2.7,2.85-4.93c1.22-3.06,2.36-5.41,3.6-6.58c0.24,0.23,0.47,0.5,0.71,0.81
		C227.91,18.14,227.14,19.95,226.41,21.78z M233.35,21.78c-0.73-1.83-1.51-3.64-2.41-5.12c0.23-0.31,0.47-0.58,0.71-0.81
		c1.24,1.17,2.38,3.53,3.6,6.58c0.89,2.23,1.81,3.84,2.85,4.93C236.48,27.15,235.01,25.93,233.35,21.78z"/>
</g>
<g>
	<path class="st1" d="M13.29,15.75h9.61v1.37H14.8v4.54h7.26v1.37H14.8v4.65H23v1.37h-9.71V15.75z"/>
	<path class="st1" d="M27.73,15.75h1.41l8.38,10.66V15.75h1.46v13.3h-1.2l-8.59-10.9v10.9h-1.46V15.75z"/>
	<path class="st1" d="M44.45,15.75h1.5v5.91h7.67v-5.91h1.5v13.3h-1.5v-5.98h-7.67v5.98h-1.5V15.75z"/>
	<path class="st1" d="M65.52,15.66h1.41l6.06,13.39h-1.61l-1.56-3.51h-7.24L61,29.05h-1.54L65.52,15.66z M69.23,24.19l-3.02-6.78
		l-3.04,6.78H69.23z"/>
	<path class="st1" d="M77.32,15.75h1.41l8.38,10.66V15.75h1.46v13.3h-1.2l-8.59-10.9v10.9h-1.46V15.75z"/>
	<path class="st1" d="M93.45,22.44V22.4c0-3.76,2.81-6.88,6.72-6.88c2.41,0,3.86,0.86,5.19,2.11l-1.03,1.1
		c-1.12-1.06-2.37-1.82-4.18-1.82c-2.94,0-5.15,2.39-5.15,5.45v0.04c0,3.08,2.22,5.49,5.15,5.49c1.82,0,3.02-0.7,4.29-1.92
		l0.99,0.97c-1.39,1.41-2.91,2.34-5.32,2.34C96.28,29.28,93.45,26.26,93.45,22.44z"/>
	<path class="st1" d="M109.85,15.75h9.61v1.37h-8.11v4.54h7.26v1.37h-7.26v4.65h8.21v1.37h-9.71V15.75z"/>
	<path class="st1" d="M124.29,15.75h4.62c4.18,0,7.07,2.87,7.07,6.61v0.04c0,3.74-2.89,6.65-7.07,6.65h-4.62V15.75z M125.79,17.14
		v10.52h3.12c3.36,0,5.51-2.28,5.51-5.22V22.4c0-2.94-2.15-5.26-5.51-5.26H125.79z"/>
	<path class="st1" d="M147.24,15.75h1.63l3.8,11.08l3.65-11.11h1.23l3.65,11.11l3.8-11.08h1.58l-4.75,13.39h-1.27l-3.65-10.79
		l-3.67,10.79h-1.25L147.24,15.75z"/>
	<path class="st1" d="M171.14,15.75h1.5v13.3h-1.5V15.75z"/>
	<path class="st1" d="M181.71,17.14h-4.48v-1.39h10.47v1.39h-4.48v11.91h-1.5V17.14z"/>
	<path class="st1" d="M192.14,15.75h1.5v5.91h7.67v-5.91h1.5v13.3h-1.5v-5.98h-7.67v5.98h-1.5V15.75z"/>
</g>
</svg>
