<?xml version="1.0" encoding="utf-8"?>
<!-- Generator: Adobe Illustrator 23.0.0, SVG Export Plug-In . SVG Version: 6.00 Build 0)  -->
<svg version="1.1" id="Layer_1" xmlns="http://www.w3.org/2000/svg" xmlns:xlink="http://www.w3.org/1999/xlink" x="0px" y="0px"
	 viewBox="0 0 403.87 211.25" style="enable-background:new 0 0 403.87 211.25;" xml:space="preserve">
<style type="text/css">
	.st0{fill:none;}
	.st1{fill:#F7F7F6;}
</style>
<polyline class="st0" points="403.87,65.69 403.87,193.25 -0.07,193.25 "/>
<path class="st1" d="M116.1,129.19c-3.78-9.67-7.68-19.68-13.39-25.55l-0.86-0.89l1.2,0.27c8.68,1.98,13.83,15.03,18.81,27.65
	c3.98,10.07,8.83,22.01,15.06,27.74l0.89,0.82l-1.2-0.19C127.33,157.57,121.26,142.39,116.1,129.19 M127.84,159.08
	c-9.73-1.21-15.6-16.13-20.86-29.76c-3.47-9-7.07-18.3-12.03-24.3l-0.27-0.32l0.36-0.22c0.5-0.31,1.01-0.58,1.51-0.8l0.17-0.08
	l0.16,0.1c6.94,4.13,11.46,15.69,15.82,26.87c4.13,10.57,8.82,22.32,15.42,27.88l0.94,0.79L127.84,159.08z M119.73,159.14
	c-10.3-0.76-15.74-15.48-21.14-29.66c-2.62-6.89-5.34-14.01-8.66-19.66l-0.12-0.21l0.14-0.19c0.7-0.94,1.42-1.79,2.14-2.53
	l0.28-0.29l0.26,0.31c4.7,5.58,8.22,14.7,11.62,23.53c4.31,11.18,8.62,22.79,15.72,28.05l1.01,0.75L119.73,159.14z M112.38,159.2
	c-10.83-0.36-15.92-14.9-21.45-29.59c-1.63-4.34-3.32-8.83-5.15-12.93l-0.07-0.16l0.08-0.16c0.77-1.53,1.55-2.94,2.31-4.19
	l0.33-0.54l0.31,0.55c2.92,5.27,5.41,11.81,7.82,18.14c4.48,11.77,8.49,23.29,16.05,28.19l1.1,0.72L112.38,159.2z M83.65,111.04
	l-0.33,0.57l-0.31-0.57c-0.6-1.1-1.2-2.13-1.79-3.04l-0.15-0.23l0.17-0.21c0.71-0.85,1.44-1.6,2.17-2.25l0.27-0.23l0.24,0.26
	c0.58,0.62,1.16,1.31,1.72,2.06l0.16,0.21l-0.15,0.22C84.99,108.8,84.33,109.86,83.65,111.04 M82.39,113.36
	c-2.51,4.82-4.69,10.35-6.8,15.69c-4.98,12.61-11.3,27.49-19.96,29.49l-1.21,0.28l0.86-0.89c5.69-5.88,10.76-17.71,14.53-27.37
	c2.99-7.66,6.08-15.58,9.97-21.08l0.32-0.45l0.29,0.47c0.67,1.08,1.34,2.27,2,3.53l0.09,0.17L82.39,113.36z M46.23,158.58L45,158.82
	l0.91-0.87c6.02-5.78,10.88-17.39,14.79-27.52c4.14-10.73,8.42-21.82,14.82-26.59l0.25-0.18l0.22,0.21
	c0.58,0.55,1.14,1.16,1.67,1.79l0.19,0.23l-0.18,0.23c-4.58,5.97-7.97,14.67-11.25,23.07C61.33,142.2,55.27,156.77,46.23,158.58
	 M37.71,158.6l-1.26,0.22l0.96-0.85c6.34-5.63,10.85-17.02,14.9-27.64c5.06-13.29,10.3-27.03,19.44-29.31l0.13-0.03l0.12,0.05
	c0.29,0.13,0.57,0.28,0.84,0.44l0.46,0.26l-0.4,0.34c-6.54,5.56-10.8,16.58-14.91,27.24C52.8,142.72,47.13,156.98,37.71,158.6
	 M28.28,158.83l1.03-0.81c6.8-5.35,11.11-16.6,15.33-27.82c5.53-14.68,11.25-29.87,22.08-30.23l1.31-0.04l-1.1,0.72
	c-7.55,4.9-12.19,17.07-16.67,28.83c-5.3,13.93-10.73,27.97-20.68,29.2L28.28,158.83z M77.55,102.58c0.54-0.27,1.11-0.5,1.69-0.68
	l0.14-0.04l0.13,0.07c0.3,0.15,0.59,0.31,0.88,0.49l0.41,0.25l-0.35,0.33c-0.45,0.43-0.91,0.9-1.35,1.39l-0.28,0.31l-0.27-0.32
	c-0.38-0.45-0.74-0.84-1.1-1.21l-0.35-0.36L77.55,102.58z M85.94,103.51c0.53-0.29,1.06-0.54,1.58-0.73l0.16-0.06l0.15,0.08
	c0.31,0.17,0.62,0.35,0.92,0.55l0.37,0.24l-0.3,0.32c-0.43,0.44-0.85,0.93-1.31,1.48l-0.29,0.35l-0.28-0.36
	c-0.39-0.5-0.75-0.93-1.09-1.3l-0.31-0.34L85.94,103.51z M133.11,145.34c-2.62-4.81-4.9-10.58-7.15-16.28
	c-5.93-15.01-12.06-30.53-24.99-30.68H67l-0.25,0.02c-11.83,0.32-17.74,16.02-23.46,31.22c-5.54,14.7-11.26,29.91-22.1,30.24v1.51
	h33.6l0.21-0.02c12.71-0.41,18.79-15.79,24.66-30.67c1.55-3.91,3.14-7.95,4.85-11.66l0.35-0.75l0.32,0.76
	c1.54,3.59,2.99,7.45,4.39,11.18c5.6,14.86,11.38,30.23,22.72,31.16l34.39,0h2.06v-1.51C141.91,159.64,137.11,153.52,133.11,145.34"
	/>
<g>
	<path class="st1" d="M169.57,112.49h14.69c3.94,0,7.05,1.13,9.02,3.06c1.43,1.48,2.22,3.3,2.22,5.52v0.1c0,4.49-2.76,6.8-5.47,7.98
		c4.09,1.23,7.39,3.6,7.39,8.33v0.1c0,5.92-4.98,9.41-12.52,9.41h-15.33V112.49z M191.55,121.61c0-3.4-2.71-5.62-7.64-5.62h-10.5
		v11.88h10.2c4.68,0,7.93-2.12,7.93-6.16V121.61z M184.31,131.32h-10.89v12.17H185c5.22,0,8.48-2.32,8.48-6.16v-0.1
		C193.48,133.48,190.32,131.32,184.31,131.32z"/>
	<path class="st1" d="M202.94,134.37v-0.1c0-7.2,5.62-13.31,13.31-13.31c7.64,0,13.26,6.01,13.26,13.21v0.1
		c0,7.2-5.67,13.31-13.36,13.31C208.51,147.58,202.94,141.57,202.94,134.37z M225.62,134.37v-0.1c0-5.47-4.09-9.96-9.46-9.96
		c-5.52,0-9.32,4.49-9.32,9.86v0.1c0,5.47,4.04,9.91,9.41,9.91C221.77,144.18,225.62,139.74,225.62,134.37z"/>
	<path class="st1" d="M234.25,143.74l1.92-2.71c2.76,2.07,5.82,3.25,8.82,3.25c3.06,0,5.27-1.58,5.27-4.04v-0.1
		c0-2.56-3.01-3.55-6.36-4.49c-3.99-1.13-8.43-2.51-8.43-7.2v-0.1c0-4.39,3.65-7.29,8.67-7.29c3.11,0,6.56,1.08,9.17,2.81
		l-1.73,2.86c-2.37-1.53-5.08-2.46-7.54-2.46c-3.01,0-4.93,1.58-4.93,3.7v0.1c0,2.42,3.15,3.35,6.55,4.39
		c3.94,1.18,8.18,2.71,8.18,7.29v0.1c0,4.83-3.99,7.64-9.07,7.64C241.15,147.48,237.1,146.05,234.25,143.74z"/>
	<path class="st1" d="M259.33,134.32v-0.1c0-7.34,5.18-13.26,12.22-13.26c7.54,0,11.88,6.01,11.88,13.46c0,0.49,0,0.79-0.05,1.23
		h-20.21c0.54,5.52,4.44,8.62,8.97,8.62c3.5,0,5.96-1.43,8.03-3.6l2.37,2.12c-2.56,2.86-5.67,4.78-10.5,4.78
		C265.05,147.58,259.33,142.21,259.33,134.32z M279.59,132.84c-0.39-4.63-3.06-8.67-8.13-8.67c-4.44,0-7.79,3.7-8.28,8.67H279.59z"
		/>
	<path class="st1" d="M317.3,112.24h3.65l15.72,34.75h-4.19l-4.04-9.12h-18.78l-4.09,9.12h-3.99L317.3,112.24z M326.91,134.37
		l-7.84-17.59l-7.89,17.59H326.91z"/>
	<path class="st1" d="M344.46,112.49h14.84c4.24,0,7.64,1.28,9.81,3.45c1.68,1.68,2.66,4.09,2.66,6.8v0.1
		c0,5.72-3.94,9.07-9.36,10.05l10.6,14.1h-4.78l-10-13.41h-9.86v13.41h-3.89V112.49z M358.95,130.08c5.17,0,8.87-2.66,8.87-7.1v-0.1
		c0-4.24-3.25-6.8-8.82-6.8h-10.65v14H358.95z"/>
</g>
<g>
	<path class="st1" d="M42.33,45.96h16.19v2.3H44.86v7.65h12.22v2.3H44.86v7.84h13.82v2.3H42.33V45.96z"/>
	<path class="st1" d="M66.66,45.96h2.37l14.11,17.95V45.96h2.46v22.4h-2.02L69.12,49.99v18.37h-2.46V45.96z"/>
	<path class="st1" d="M94.81,45.96h2.53v9.95h12.93v-9.95h2.53v22.4h-2.53V58.28H97.34v10.08h-2.53V45.96z"/>
	<path class="st1" d="M130.3,45.8h2.37l10.21,22.56h-2.72l-2.62-5.92h-12.19l-2.66,5.92h-2.59L130.3,45.8z M136.54,60.17
		l-5.09-11.42l-5.12,11.42H136.54z"/>
	<path class="st1" d="M150.17,45.96h2.37l14.11,17.95V45.96h2.46v22.4h-2.02l-14.46-18.37v18.37h-2.46V45.96z"/>
	<path class="st1" d="M177.34,57.23v-0.06c0-6.34,4.74-11.58,11.33-11.58c4.06,0,6.5,1.44,8.74,3.55l-1.73,1.86
		c-1.89-1.79-4-3.07-7.04-3.07c-4.96,0-8.67,4.03-8.67,9.18v0.06c0,5.18,3.74,9.25,8.67,9.25c3.07,0,5.09-1.18,7.23-3.23l1.66,1.63
		c-2.34,2.37-4.9,3.94-8.96,3.94C182.11,68.74,177.34,63.66,177.34,57.23z"/>
	<path class="st1" d="M204.96,45.96h16.19v2.3h-13.66v7.65h12.22v2.3h-12.22v7.84h13.82v2.3h-16.35V45.96z"/>
	<path class="st1" d="M229.28,45.96h7.78c7.04,0,11.9,4.83,11.9,11.13v0.06c0,6.3-4.86,11.2-11.9,11.2h-7.78V45.96z M231.8,48.3
		v17.73h5.25c5.66,0,9.28-3.84,9.28-8.8v-0.06c0-4.96-3.62-8.86-9.28-8.86H231.8z"/>
	<path class="st1" d="M267.93,45.96h2.75l6.4,18.65l6.14-18.72h2.08l6.14,18.72l6.4-18.65h2.66l-8,22.56h-2.14l-6.14-18.17
		l-6.18,18.17h-2.11L267.93,45.96z"/>
	<path class="st1" d="M308.19,45.96h2.53v22.4h-2.53V45.96z"/>
	<path class="st1" d="M325.98,48.3h-7.55v-2.34h17.63v2.34h-7.55v20.06h-2.53V48.3z"/>
	<path class="st1" d="M343.55,45.96h2.53v9.95H359v-9.95h2.53v22.4H359V58.28h-12.93v10.08h-2.53V45.96z"/>
</g>
</svg>
