<?xml version="1.0" encoding="utf-8"?>
<!-- Generator: Adobe Illustrator 23.0.2, SVG Export Plug-In . SVG Version: 6.00 Build 0)  -->
<svg version="1.1" xmlns="http://www.w3.org/2000/svg" xmlns:xlink="http://www.w3.org/1999/xlink" x="0px" y="0px"
	 viewBox="0 0 1000 1000" style="enable-background:new 0 0 1000 1000;" xml:space="preserve">
<style type="text/css">
	.st0{fill-rule:evenodd;clip-rule:evenodd;fill:#F8F8F8;}
	.st1{fill:#F8F8F8;}
</style>
<g id="Layer_1">
	<g id="Bose_AR_Vertical">
		<path id="Audio_Ribbon_4_" class="st0" d="M688.2,483.6c-10.3-18.8-19.2-41.4-28-63.7C637,361.1,613,300.3,562.4,299.7h-133
			l-1,0.1c-46.3,1.2-69.5,62.7-91.9,122.2c-21.7,57.6-44.1,117.1-86.5,118.4v5.9h131.6l0.8-0.1c49.8-1.6,73.6-61.8,96.6-120.1
			c6-15.3,12.3-31.1,19-45.7l1.4-2.9l1.3,3c6,14.1,11.7,29.2,17.2,43.8c21.9,58.2,44.6,118.4,89,122l134.7,0h8.1v-5.9
			C722.7,539.6,703.9,515.7,688.2,483.6z M503.6,319.8c2.1-1.1,4.1-2.1,6.2-2.9l0.6-0.2l0.6,0.3c1.2,0.7,2.4,1.4,3.6,2.2l1.4,0.9
			l-1.2,1.2c-1.7,1.7-3.3,3.6-5.1,5.8l-1.1,1.4l-1.1-1.4c-1.5-2-2.9-3.6-4.3-5.1l-1.2-1.3L503.6,319.8z M470.7,316.2
			c2.1-1.1,4.4-2,6.6-2.7l0.6-0.2l0.5,0.3c1.2,0.6,2.3,1.2,3.4,1.9l1.6,1l-1.4,1.3c-1.8,1.7-3.5,3.5-5.3,5.5l-1.1,1.2l-1.1-1.2
			c-1.5-1.7-2.9-3.3-4.3-4.7l-1.4-1.4L470.7,316.2z M277.8,536.5l4-3.2c26.6-20.9,43.5-65,60-108.9c21.6-57.5,44-117,86.5-118.4
			l5.1-0.2l-4.3,2.8c-29.6,19.2-47.7,66.8-65.3,112.9c-20.8,54.5-42,109.5-81,114.3L277.8,536.5z M314.7,535.6l-5,0.9l3.8-3.3
			c24.8-22,42.5-66.6,58.3-108.2c19.8-52,40.3-105.9,76.1-114.8l0.5-0.1l0.5,0.2c1.1,0.5,2.2,1.1,3.3,1.7l1.8,1l-1.6,1.3
			c-25.6,21.8-42.3,64.9-58.4,106.7C373.8,473.4,351.6,529.2,314.7,535.6z M348,535.5l-4.8,1l3.5-3.4
			c23.6-22.6,42.6-68.1,57.9-107.8c16.2-42,33-85.5,58-104.1l1-0.7l0.9,0.8c2.3,2.2,4.5,4.5,6.5,7l0.7,0.9l-0.7,0.9
			c-17.9,23.4-31.2,57.4-44.1,90.4C407.2,471.3,383.4,528.4,348,535.5z M489.6,358.4c-9.8,18.9-18.4,40.5-26.6,61.4
			c-19.5,49.4-44.2,107.6-78.2,115.5l-4.7,1.1l3.4-3.5c22.3-23,42.1-69.4,56.9-107.2c11.7-30,23.8-61,39-82.6l1.2-1.8l1.1,1.8
			c2.6,4.2,5.3,8.9,7.8,13.8l0.3,0.7L489.6,358.4z M494.6,349.3l-1.3,2.2l-1.2-2.2c-2.4-4.3-4.7-8.3-7-11.9l-0.6-0.9l0.7-0.8
			c2.8-3.3,5.6-6.3,8.5-8.8l1-0.9l1,1c2.3,2.4,4.5,5.1,6.8,8.1l0.6,0.8l-0.6,0.9C499.8,340.6,497.3,344.7,494.6,349.3z M607.1,537.9
			c-42.4-1.4-62.4-58.4-84-115.9c-6.4-17-13-34.6-20.2-50.6l-0.3-0.6l0.3-0.6c3-6,6-11.5,9-16.4l1.3-2.1l1.2,2.2
			c11.4,20.6,21.2,46.3,30.6,71c17.6,46.1,33.3,91.2,62.8,110.4l4.3,2.8L607.1,537.9z M635.9,537.7c-40.3-3-61.6-60.6-82.8-116.2
			c-10.3-27-20.9-54.9-33.9-77l-0.5-0.8l0.6-0.8c2.7-3.7,5.5-7,8.4-9.9l1.1-1.1l1,1.2c18.4,21.9,32.2,57.6,45.5,92.1
			c16.9,43.8,33.8,89.2,61.5,109.8l4,2.9L635.9,537.7z M667.6,537.4c-38.1-4.7-61.1-63.1-81.7-116.5c-13.6-35.2-27.7-71.7-47.1-95.2
			l-1-1.3l1.4-0.9c2-1.2,3.9-2.3,5.9-3.1l0.7-0.3l0.6,0.4c27.2,16.2,44.9,61.4,62,105.2c16.2,41.4,34.5,87.4,60.4,109.2l3.7,3.1
			L667.6,537.4z M621.6,420.4c-14.8-37.9-30.1-77-52.4-100l-3.4-3.5l4.7,1.1c34,7.7,54.1,58.8,73.7,108.2
			c15.6,39.4,34.6,86.2,59,108.6l3.5,3.2l-4.7-0.7C665.6,531.5,641.8,472.1,621.6,420.4z"/>
	</g>
</g>
<g id="Layer_3">
	<g>
		<path class="st1" d="M250,611.6h36.1c9.7,0,17.3,2.8,22.2,7.5c3.5,3.6,5.5,8.1,5.5,13.6v0.2c0,11-6.8,16.7-13.5,19.7
			c10.1,3,18.2,8.9,18.2,20.5v0.2c0,14.6-12.2,23.2-30.8,23.2H250V611.6z M304.1,634c0-8.4-6.7-13.8-18.8-13.8h-25.8v29.2h25.1
			c11.5,0,19.5-5.2,19.5-15.2V634z M286.3,657.9h-26.8v30H288c12.9,0,20.9-5.7,20.9-15.2v-0.2C308.8,663.3,301.1,657.9,286.3,657.9z
			"/>
		<path class="st1" d="M332.1,665.5v-0.2c0-17.7,13.8-32.8,32.8-32.8c18.8,0,32.6,14.8,32.6,32.5v0.2c0,17.7-14,32.8-32.9,32.8
			C345.8,698,332.1,683.2,332.1,665.5z M387.9,665.5v-0.2c0-13.5-10.1-24.5-23.3-24.5c-13.6,0-22.9,11-22.9,24.3v0.2
			c0,13.5,9.9,24.4,23.2,24.4C378.5,689.6,387.9,678.7,387.9,665.5z"/>
		<path class="st1" d="M409.2,688.5l4.7-6.7c6.8,5.1,14.3,8,21.7,8c7.5,0,13-3.9,13-9.9v-0.2c0-6.3-7.4-8.7-15.6-11
			c-9.8-2.8-20.7-6.2-20.7-17.7v-0.2c0-10.8,9-18,21.3-18c7.6,0,16.1,2.7,22.6,6.9l-4.2,7c-5.8-3.8-12.5-6.1-18.6-6.1
			c-7.4,0-12.1,3.9-12.1,9.1v0.2c0,5.9,7.8,8.3,16.1,10.8c9.7,2.9,20.1,6.7,20.1,18v0.2c0,11.9-9.8,18.8-22.3,18.8
			C426.2,697.7,416.2,694.2,409.2,688.5z"/>
		<path class="st1" d="M470.9,665.3v-0.2c0-18.1,12.7-32.6,30.1-32.6c18.6,0,29.2,14.8,29.2,33.1c0,1.2,0,1.9-0.1,3h-49.7
			c1.3,13.6,10.9,21.2,22.1,21.2c8.6,0,14.7-3.5,19.8-8.9l5.8,5.2c-6.3,7-13.9,11.8-25.8,11.8C485,698,470.9,684.8,470.9,665.3z
			 M520.8,661.7c-1-11.4-7.5-21.4-20-21.4c-10.9,0-19.2,9.1-20.4,21.4H520.8z"/>
		<path class="st1" d="M616,611h9l38.7,85.5h-10.3l-9.9-22.4h-46.2l-10.1,22.4h-9.8L616,611z M639.7,665.5l-19.3-43.3L601,665.5
			H639.7z"/>
		<path class="st1" d="M680.5,611.6H717c10.4,0,18.8,3.2,24.1,8.5c4.1,4.1,6.5,10.1,6.5,16.7v0.2c0,14.1-9.7,22.3-23,24.7l26.1,34.7
			h-11.8l-24.6-33H690v33h-9.6V611.6z M716.1,654.9c12.7,0,21.8-6.5,21.8-17.5v-0.2c0-10.4-8-16.7-21.7-16.7H690v34.4H716.1z"/>
	</g>
</g>
</svg>
